<svg width="25" height="19" viewBox="0 0 25 19" fill="none" xmlns="http://www.w3.org/2000/svg">
<path d="M0 19H10.0349V9.01935C10.0349 7.08347 10.7779 5.22068 12.1127 3.81418L13.2227 2.64246C13.8678 1.96025 14.7688 1.57484 15.7098 1.57484C17.0245 1.57484 17.6696 3.1674 16.7241 4.07776L13.6921 6.79552C12.631 7.74574 13.3072 9.5 14.7354 9.5H17.2469C18.4504 9.5 19.031 10.9685 18.1501 11.7858L17.4649 12.4215C14.9312 14.7738 16.6018 19 20.0676 19L23.6848 15.5579C26.025 13.3319 24.4411 9.40254 21.2044 9.40254L23.925 6.54302C26.2764 4.07333 24.5167 0 21.0998 0H15.99C12.0949 0 8.52892 2.18396 6.77152 5.64595L0 19Z" fill="#4C78EA"/>
</svg>
